<?xml version="1.0" encoding="utf-8"?>
<!-- Generator: Adobe Illustrator 19.2.0, SVG Export Plug-In . SVG Version: 6.00 Build 0)  -->
<svg version="1.1" id="Layer_1" xmlns="http://www.w3.org/2000/svg" xmlns:xlink="http://www.w3.org/1999/xlink" x="0px" y="0px"
	 viewBox="0 0 500 200" style="enable-background:new 0 0 500 200;" xml:space="preserve">
<style type="text/css">
	.st0{fill:#FF8000;}
	.st1{fill:#424242;}
	.st2{font-family:'Poppins-Black';}
	.st3{font-size:63.3165px;}
</style>
<path id="Bitcoin" class="st0" d="M302.7,96.7c4.8-5.6,7.8-12.7,7.8-20.7c0-25-15-40-40-40h0l0-30c0-1.1-0.9-2-2-2h-12
	c-1.1,0-1.9,0.9-2,1.9V36h-16l0-30c0-1.1-0.9-2-2-2h-12c-1.1,0-1.9,0.9-2,1.9V36l-34,0c-1.1,0-2,0.9-2,2v12c0,1.1,0.9,2,2,2h2
	c8.8,0,16,7.2,16,16l0,64c0,8.4-6.4,15.2-14.6,15.9c-0.8,0.1-1.6,0.7-1.8,1.5l-3,12.1c-0.1,0.6,0,1.2,0.4,1.7c0.4,0.5,1,0.8,1.6,0.8
	h33.5v30.1c0,1.1,0.9,1.9,2,1.9h12c1.1,0,2-0.9,2-2l0-30h16v30.1c0,1.1,0.9,1.9,2,1.9h12c1.1,0,2-0.9,2-2l0-30h8c25,0,40-15,40-40
	C318.5,112.3,312.1,102.2,302.7,96.7z M238.5,60h24c8.8,0,16,7.2,16,16c0,8.8-7.2,16-16,16h-24V60z M270.5,140h-32v-32h32
	c8.8,0,16,7.2,16,16S279.4,140,270.5,140z"/>
<g>
	<text transform="matrix(1 0 0 1 323.5592 123.9989)" class="st1 st2 st3">QUIZ</text>
</g>
<g>
	<text transform="matrix(1 0 0 1 64.4957 123.9988)" class="st1 st2 st3">THE</text>
</g>
</svg>
